<svg xmlns="http://www.w3.org/2000/svg" width="59.607" height="59.607" viewBox="0 0 59.607 59.607"><path d="M484.7,263.238a29.8,29.8,0,1,1,29.8-29.8A29.838,29.838,0,0,1,484.7,263.238Zm0-56.776a26.972,26.972,0,1,0,26.972,26.973A27,27,0,0,0,484.7,206.463Zm10.049,14.88a2.206,2.206,0,1,0,2.206,2.206A2.206,2.206,0,0,0,494.744,221.342Zm-9.8,2.828a9.264,9.264,0,1,0,9.265,9.265A9.275,9.275,0,0,0,484.939,224.17Zm0,15.2a5.934,5.934,0,1,1,5.934-5.934A5.941,5.941,0,0,1,484.939,239.37Zm18.694-13.634a11.3,11.3,0,0,0-11.3-11.3H477.419a11.3,11.3,0,0,0-11.3,11.3V240.65a11.3,11.3,0,0,0,11.3,11.3h14.914a11.3,11.3,0,0,0,11.3-11.3Zm-3.539,14.915a7.761,7.761,0,0,1-7.761,7.76H477.419a7.76,7.76,0,0,1-7.76-7.76V225.736a7.76,7.76,0,0,1,7.76-7.76h14.914a7.761,7.761,0,0,1,7.761,7.76Z" transform="translate(-454.891 -203.631)" fill="#fff"/></svg>