<svg xmlns="http://www.w3.org/2000/svg" width="59.999" height="60" viewBox="0 0 59.999 60"><g transform="translate(0 0)"><g transform="translate(0 0)"><path d="M484.713,198.718a30,30,0,1,1,30-30A30.034,30.034,0,0,1,484.713,198.718Zm0-56.777a26.777,26.777,0,1,0,26.776,26.777A26.807,26.807,0,0,0,484.713,141.941Z" transform="translate(-454.713 -138.718)" fill="#fff"/></g><g transform="translate(12.572 17.746)"><path d="M501.54,162.567a7.7,7.7,0,0,0-7.7-7.7H473.854a7.7,7.7,0,0,0-7.7,7.7v9.365a7.7,7.7,0,0,0,7.7,7.7h19.982a7.7,7.7,0,0,0,7.7-7.7Zm-12.607,5.154-7.969,4.37c-.346.188-.658-.063-.658-.457v-8.971c0-.4.322-.649.668-.452l8.024,4.6A.522.522,0,0,1,488.934,167.721Z" transform="translate(-466.151 -154.863)" fill="#fff"/></g></g></svg>