<svg xmlns="http://www.w3.org/2000/svg" width="59.898" height="59.898" viewBox="0 0 59.898 59.898"><g transform="translate(0 0)"><path d="M484.708,327.992a29.949,29.949,0,1,1,29.948-29.949A29.983,29.983,0,0,1,484.708,327.992Zm0-56.675a26.725,26.725,0,1,0,26.725,26.725A26.756,26.756,0,0,0,484.708,271.317Z" transform="translate(-454.759 -268.094)" fill="#fff"/></g><g transform="translate(13.185 19.587)"><path d="M494.885,291.346c-8.185,0-8.2,8.155-8.2,8.2,0,0-.561,8.164,8.2,8.164,0,0,6.592.375,7.25-4.816a.768.768,0,0,0-.76-.866h-2.291a.752.752,0,0,0-.725.53c-.2.678-.9,1.765-3.349,1.765,0,0-3.173.211-3.681-2.836a.758.758,0,0,1,.756-.872H501.6a.76.76,0,0,0,.763-.732C502.439,297.692,502.038,291.346,494.885,291.346Zm-3.1,6.409a.445.445,0,0,1-.425-.583,3.64,3.64,0,0,1,3.605-2.7,3.024,3.024,0,0,1,3.209,2.777.444.444,0,0,1-.442.506Zm-9.831-1.9a.317.317,0,0,1-.055-.584,3.762,3.762,0,0,0,1.991-3.676c0-3.811-2.66-5.682-6.036-5.682H467.315a.561.561,0,0,0-.561.561V306.7a.56.56,0,0,0,.561.561h10.542s6.783.209,6.783-6.3C484.641,300.955,484.869,296.816,481.958,295.855Zm-10.311-5.744a.405.405,0,0,1,.406-.406h5.806s1.506,0,1.506,2.223-.883,2.546-1.891,2.546h-5.421a.405.405,0,0,1-.406-.406Zm5.9,13.357h-5.495a.4.4,0,0,1-.406-.4v-4.9a.405.405,0,0,1,.406-.4h5.806s2.255-.021,2.243,2.939C480.1,303.188,478.43,303.448,477.547,303.468Zm12.747-16.7v1.826a.4.4,0,0,0,.4.4H498.7a.4.4,0,0,0,.4-.4v-1.826a.4.4,0,0,0-.4-.4H490.7A.4.4,0,0,0,490.294,286.767Z" transform="translate(-466.754 -285.914)" fill="#fff"/></g></svg>