<svg id="Group_101" data-name="Group 101" xmlns="http://www.w3.org/2000/svg" width="29.949" height="29.949" viewBox="0 0 29.949 29.949">
  <g id="Group_44" data-name="Group 44" transform="translate(0 0)">
    <g id="Group_41" data-name="Group 41">
      <path id="Path_51" data-name="Path 51" d="M387.829,298.043A14.974,14.974,0,1,1,402.8,283.068,14.992,14.992,0,0,1,387.829,298.043Zm0-28.337a13.363,13.363,0,1,0,13.363,13.363A13.378,13.378,0,0,0,387.829,269.705Z" transform="translate(-372.854 -268.094)" fill="#2e2e2d"/>
    </g>
    <g id="Group_43" data-name="Group 43" transform="translate(7.844 11.53)">
      <g id="Group_42" data-name="Group 42">
        <path id="Path_52" data-name="Path 52" d="M402.723,293.658v5.591a.25.25,0,0,1-.25.25h-2.886a.25.25,0,0,1-.251-.25v-5.2c0-1.368-.489-2.3-1.715-2.3a1.852,1.852,0,0,0-1.737,1.238,2.308,2.308,0,0,0-.112.825v5.439a.25.25,0,0,1-.251.25h-2.885a.249.249,0,0,1-.25-.25c.007-1.385.036-8.1.006-9.683a.249.249,0,0,1,.25-.253h2.88a.25.25,0,0,1,.25.251v1.193c-.007.012-.016.023-.023.034h.023v-.034a3.363,3.363,0,0,1,3.052-1.683c2.228,0,3.9,1.456,3.9,4.584ZM387.376,299.5h2.886a.25.25,0,0,0,.25-.25v-9.685a.25.25,0,0,0-.25-.251h-2.886a.25.25,0,0,0-.25.251v9.685A.25.25,0,0,0,387.376,299.5Z" transform="translate(-387.126 -289.074)" fill="#2e2e2d"/>
      </g>
    </g>
  </g>
  <g id="Group_45" data-name="Group 45" transform="translate(7.623 6.848)">
    <circle id="Ellipse_2" data-name="Ellipse 2" cx="1.813" cy="1.813" r="1.813" fill="#2e2e2d"/>
  </g>
</svg>
