<svg xmlns="http://www.w3.org/2000/svg" width="59.607" height="59.607" viewBox="0 0 59.607 59.607"><g transform="translate(0 0.284)"><path d="M484.7,263.238a29.8,29.8,0,1,1,29.8-29.8A29.838,29.838,0,0,1,484.7,263.238Zm0-56.776a26.972,26.972,0,1,0,26.972,26.973A27,27,0,0,0,484.7,206.463Z" transform="translate(-454.891 -203.915)" fill="#fff"/><g transform="translate(-239 -1913.284)"><g transform="translate(249 1928)" fill="none" stroke="#fff" stroke-width="3"><rect width="40" height="31" rx="5" stroke="none"/><rect x="1.5" y="1.5" width="37" height="28" rx="3.5" fill="none"/></g><g transform="translate(287 1951) rotate(180)" fill="none" stroke-linecap="round"><path d="M18,0,36,22H0Z" stroke="none"/><path d="M 18.00000190734863 4.737550735473633 L 6.330724716186523 19 L 29.66927719116211 19 L 18.00000190734863 4.737550735473633 M 18.00000190734863 0 L 36 22 L 3.814697265625e-06 22 L 18.00000190734863 0 Z" stroke="none" fill="#fff"/></g><line x1="12" y1="9" transform="translate(273.5 1946.5)" fill="none" stroke="#fff" stroke-linecap="round" stroke-width="3"/><line x1="12" y2="10" transform="translate(252.5 1946.5)" fill="none" stroke="#fff" stroke-linecap="round" stroke-width="3"/></g></g></svg>