<svg xmlns="http://www.w3.org/2000/svg" width="60" height="59.999" viewBox="0 0 60 59.999"><g transform="translate(-651.663 -3658.284)"><g transform="translate(-1187.497 -3573.716)"><g transform="translate(1839.16 7232)"><g transform="translate(0 0)"><path d="M402.808,262.946a30,30,0,1,1,30-30A30.034,30.034,0,0,1,402.808,262.946Zm0-56.776a26.777,26.777,0,1,0,26.777,26.777A26.807,26.807,0,0,0,402.808,206.17Z" transform="translate(-372.808 -202.947)" fill="#fff"/></g><g transform="translate(21.614 12.018)"><path d="M396.153,232v17.387a.453.453,0,0,0,.453.453h6.457a.453.453,0,0,0,.453-.453v-17.67H408.2a.452.452,0,0,0,.451-.414l.451-5.324a.453.453,0,0,0-.452-.491h-5.131v-3.777a1.6,1.6,0,0,1,1.6-1.6h3.608a.453.453,0,0,0,.453-.453v-5.323a.453.453,0,0,0-.453-.453h-6.1a6.477,6.477,0,0,0-6.477,6.477v5.132h-3.228a.453.453,0,0,0-.453.453v5.324a.452.452,0,0,0,.453.453h3.228Z" transform="translate(-392.472 -213.881)" fill="#fff" fill-rule="evenodd"/></g></g></g></g></svg>