<svg xmlns="http://www.w3.org/2000/svg" width="59.898" height="59.898" viewBox="0 0 59.898 59.898"><g transform="translate(0 0)"><path d="M402.8,327.992a29.949,29.949,0,1,1,29.948-29.949A29.983,29.983,0,0,1,402.8,327.992Zm0-56.675a26.725,26.725,0,1,0,26.725,26.725A26.755,26.755,0,0,0,402.8,271.317Z" transform="translate(-372.854 -268.094)" fill="#fff"/><g transform="translate(15.687 23.061)"><path d="M418.32,298.242v11.182a.5.5,0,0,1-.5.5h-5.773a.5.5,0,0,1-.5-.5v-10.4c0-2.737-.977-4.606-3.431-4.606a3.7,3.7,0,0,0-3.473,2.476,4.616,4.616,0,0,0-.224,1.651v10.878a.5.5,0,0,1-.5.5h-5.771a.5.5,0,0,1-.5-.5c.013-2.77.071-16.207.012-19.365a.5.5,0,0,1,.5-.507h5.76a.5.5,0,0,1,.5.5v2.386c-.013.023-.033.045-.045.067h.045v-.067a6.727,6.727,0,0,1,6.1-3.366c4.456,0,7.8,2.912,7.8,9.168Zm-30.693,11.682H393.4a.5.5,0,0,0,.5-.5V290.053a.5.5,0,0,0-.5-.5h-5.772a.5.5,0,0,0-.5.5v19.371A.5.5,0,0,0,387.626,309.924Z" transform="translate(-387.126 -289.074)" fill="#fff"/></g></g><g transform="translate(15.245 13.697)"><circle cx="3.626" cy="3.626" r="3.626" fill="#fff"/></g></svg>