<svg xmlns="http://www.w3.org/2000/svg" width="143.463" height="31.842" viewBox="0 0 143.463 31.842"><path d="M17.706,24.338c7.123,1.313,12.336-5.589,15.676-11.559,1.337-2.393,3.367-8.656,1.094-11.025-2.082-2.289-3.691.718-4.926,1.72L30.5,4.6c1.9,2.4.247,6.97-.881,9.41-1.694,3-4.889,7.545-8.622,6.911a2.72,2.72,0,0,1-1.765-1.8,42.341,42.341,0,0,0,5.73-7.81c1.121-1.893,3.065-5.549,1.272-7.057-1.488-1.032-4.467.454-6.066,1.8a16.065,16.065,0,0,0-2.381,2.613c-2.054,2.784-4.013,7.563-3.809,11.239-.987.713-2.113,1.427-3.454,1.013-1.326-.3-1.565-1.424-1.754-2.309-.845-5.33,4.495-12.06,7.492-15.925a23.292,23.292,0,0,1-4.089.716c-3.966.166-6.911-1.676-9.057.972A6.49,6.49,0,0,0,1.982,7.488c.879-.751,2.181-.572,3.425-.5,2.153.19,3.213.448,5.153-.073C8.834,9.352,5.951,14.161,5.423,17.16c-.28,1.991-.255,5.13,1.445,6.537,2.82,1.88,5.622.568,8.123-1.161A4.97,4.97,0,0,0,17.706,24.338ZM22.49,7.689c.749-.369.525.747.525.747a11.212,11.212,0,0,1-1.679,3.923,19.127,19.127,0,0,1-4.041,4.565c.043-1.685,1.847-5.363,2.771-6.768A7.775,7.775,0,0,1,22.49,7.689Z" transform="translate(-1.982 -0.915)" fill="#2e2e2d"/><path d="M209.209,19.23h0c-.394.517-1.727,1.971-2.163,2.426-.021.016-.224.212-.224.212-3.606,3.621-6.363,5.72-7.96,6.059-1.09.238-1.587.3-2.1-.683-.008-.019-.02-.053-.02-.053s-.053-.46-.053-.46c0-1.306,1.695-4.228,3.963-6.184.864-.757.968-1.094.979-1.176a1.953,1.953,0,0,0-.96-.93,4.865,4.865,0,0,0-2.233,1.083c-.452.308-1.733,1.486-3.089,2.726-1.133,1.038-2.3,2.111-2.953,2.648,0,0-.911.742-1.1.907.008-.192.032-.575.032-.575.024-.673.731-1.8,1.744-3.305.364-.557,1.271-2.136,1.378-2.416l.014-.026-.016-.03a1.85,1.85,0,0,0-1.306-.875c-.045.018-.4.311-.4.311-.764.621-2.389,2.086-3.96,3.509-1.443,1.3-2.8,2.531-3.142,2.778a27.326,27.326,0,0,1-7.208,4.044c-.406.118-1.789.45-2.474-.322,0,0-.157-.172-.236-.27.1-.046.325-.141.325-.141a24.913,24.913,0,0,0,6.282-3.552c.026-.024,2.775-2.38,2.775-4.7,0-.1-.005-.2-.013-.3-.172-.836-.884-1.092-1.9-1.218a11.326,11.326,0,0,0-7.87,3.81l-.274.3a21.7,21.7,0,0,0-3.8,5.277s-.04.1-.051.11a.388.388,0,0,0-.082.028,17.272,17.272,0,0,1-4.941,1.431c-.976.123-2.363.207-3.138-.5,0,0-.191-.166-.275-.247.153-.079,3.782-2.022,3.782-2.022,2.994-1.817,5-4.582,5-6.021h0c-.061-1.672-1.626-2.05-2.929-2.067-1.938.009-3.723.725-5.98,2.386a14.884,14.884,0,0,0-4.774,7.3s-.019.108-.033.154c-.061.018-.286.072-.286.072-1.434.355-3.839.938-4.283-.46-.713-2.274,1.564-4.459,3.388-6.215,0,0,1.028-1.009,1.028-1.009a1.171,1.171,0,0,0,.268-.831.421.421,0,0,0-.215-.323,3.785,3.785,0,0,0-2.9.258,5.808,5.808,0,0,1-2.331.475s-.162-.019-.257-.026c.008-.086.022-.26.022-.26a1.624,1.624,0,0,1,.573-1.022c.006,0,.081-.085.081-.085a.439.439,0,0,0,.066-.264.762.762,0,0,0-.064-.312.354.354,0,0,0-.28-.255,3.856,3.856,0,0,0-2.457,1.4,4.253,4.253,0,0,0-1.4,2.474l.008.132a.2.2,0,0,1,0,.055c-.107,1.473-1.389,2.885-3.172,4.845l-.772.852-.3.305a11.571,11.571,0,0,0-1.955,2.359l-.06.131.145-.039c.758-.226,2.935-1.279,6.831-6.183a1.066,1.066,0,0,0,.083-.114c.05.005.146.019.146.019a1.469,1.469,0,0,0,.641-.162,1.309,1.309,0,0,1,1.279-.05s.164.1.234.155c-.074.093-.763.974-.763.974-1.087,1.361-2.2,2.762-2.2,4.436a3.823,3.823,0,0,0,.135,1,2.231,2.231,0,0,0,2.013,1.553c1.618.278,3.648-.616,5.441-1.4l.908-.4a.566.566,0,0,1,.757.394,1.79,1.79,0,0,0,1.085.985c2.615,1.186,6.455.6,11.417-1.739l.239-.114c.038.087.1.259.1.259a2.929,2.929,0,0,0,2.126,1.874c4.271.568,7.791-1.875,11.2-4.238,0,0,1.554-1.18,1.808-1.377.063.064.34.366.379.414-.054.083-1.5,2.107-1.5,2.107a10.639,10.639,0,0,0-1.267,2.207c0-.007-.088.325-.088.325l.039.173a.678.678,0,0,0,.522.26c2.594-.357,5.092-2.472,6.74-3.867l.495-.418a7.547,7.547,0,0,1,1.655-1.256s.1-.03.155-.043l.12.136a.052.052,0,0,1,.01.038,1.915,1.915,0,0,1-.331.635l-.259.422a5.581,5.581,0,0,0-.661,2.177,1.446,1.446,0,0,0,.222.817,2.309,2.309,0,0,0,2.185,1.282l.259.011c3.06-.195,6.062-2.85,8.97-5.42l2.165-1.872s1.75-1.53,2.1-1.849c.048.111.121.319.121.319a3.883,3.883,0,0,1,.267,1.4l-.053.607a6.121,6.121,0,0,1-1.179,2.691l-.136.074c-.006,0-.424.108-.424.108-1.6.409-3.411.867-4.086,2.467,0,0-.061.363-.061.363a.9.9,0,0,0,.445.763,6.891,6.891,0,0,0,3.331-.237l1.325-.281a27.531,27.531,0,0,1,3.153.256,18.732,18.732,0,0,0,4.165.187c1.829-.479,3.291-2.558,3.745-4.28l.04-.139-.138.068a7.993,7.993,0,0,1-7.025.13s-.149-.072-.218-.11c.032-.069.1-.235.1-.235a20.98,20.98,0,0,0,1.314-7.3c0-.186,0-.378-.007-.565h.007a1.022,1.022,0,0,1-.039-.285,1.845,1.845,0,0,1,.365-.968,1.547,1.547,0,0,0,.328-.818c0-.042,0-.083,0-.132-.01,0-.01-.014-.01-.024a.434.434,0,0,1,.011-.08.035.035,0,0,0,0-.018c0-.1-.159-.154-.235-.175C211.38,16.379,210.371,17.7,209.209,19.23ZM162.35,26.312h0c.114-.968,1.567-2.848,2.342-3.634A6.58,6.58,0,0,1,167.2,21.1a.942.942,0,0,1,1.039.251.7.7,0,0,1,.118.386,1.044,1.044,0,0,1-.177.545,12.308,12.308,0,0,1-5.507,4.309s-.239.078-.373.125C162.317,26.586,162.35,26.312,162.35,26.312Zm13.709-.368h0c.2-1.449,2.321-3.607,2.34-3.629a6.659,6.659,0,0,1,2.511-1.58.842.842,0,0,1,.934.083.723.723,0,0,1,.194.513,1.515,1.515,0,0,1-.126.553,15.013,15.013,0,0,1-2.416,2.634,7.55,7.55,0,0,1-3.148,1.723s-.213.034-.344.053C176.023,26.183,176.059,25.945,176.059,25.945Z" transform="translate(-75.252 -9.164)" fill="#2e2e2d"/><path d="M92.039,7.79h0c-2.3.213-4.466,1.5-7.023,4.154-1.046.988-5.876,7-6.672,11.564,0,0-.013.087-.021.126a1.119,1.119,0,0,0-.11.056c-.7.376-2.807,1.283-4.144.943a1.346,1.346,0,0,1-.877-.611,2.628,2.628,0,0,1-.3-1.231,5.426,5.426,0,0,1,1.029-2.685s.253-.42.271-.45c.008.009.09-.015.09-.015,1.236-.356,3.172-2.712,3.663-4.153l.015-.038-.036-.024a7.609,7.609,0,0,0-4.74-.694,16.112,16.112,0,0,0-6.855,2.647,13.807,13.807,0,0,0-5.029,7.239c-.24,1.222-.4,2.462.448,3.038,1.758,1.02,5.215-.834,7.575-3.095l.492-.467c-.017.248-.077.92-.077.92-.03.293-.057.626-.057.957a2.212,2.212,0,0,0,.516,1.64c1.947,1.546,5.954-.148,8.165-1.661,0,0,.128-.089.2-.131.054.064.149.187.149.187a4.834,4.834,0,0,0,2.48,1.966c2.468.344,4.4-1.079,6.12-2.667,0,0,.224-.207.335-.313.035.18.167.795.167.795a2.552,2.552,0,0,0,.735,1.635c1.247.964,4.041-.348,5.613-1.466,0,0,.363-.255.572-.405-.052.221-.176.678-.176.678a15.4,15.4,0,0,1-1.244,3l-.433.88-.072.115-.125.21C92,31.5,90.758,33.51,89.548,33.685l-.085.011a1,1,0,0,1-.616-.519l-.088-.449a4.5,4.5,0,0,1,.535-1.7l.051-.109-.115.006a5.4,5.4,0,0,0-1.615.608,4.677,4.677,0,0,0-2.272,3.5,2.118,2.118,0,0,0,.143.789,1.082,1.082,0,0,0,1.1.515c7.664-.718,11.967-9.412,15.106-15.763l.616-1.252a.851.851,0,0,0,.221-.493l-.005-.073c-.013-.013-.117-.145-.117-.145s-.077-.456-.077-.456c.129-.614,1.614-1.9,1.63-1.919,0,0,.189-.142.189-.142.152-.1.248-.2.25-.28s-.1-.206-.25-.3a6.567,6.567,0,0,0-1.877-.681c-2.3-.646-6.262-.16-9.855,3.32-.377.361-1.072,1.239-1.638,1.939L90.048,21c-1.75,2.042-3.556,4.162-6.539,3.569a1.791,1.791,0,0,1-.965-.89A.862.862,0,0,1,82.564,23l.036-.076a34.871,34.871,0,0,0,5.1-4.5c2.933-3.133,6.524-8.4,6.053-9.713A1.693,1.693,0,0,0,92.039,7.79ZM67.8,18.086a5.623,5.623,0,0,1,5.172.147s.173.1.261.152c-.071.1-1.115,1.556-1.115,1.556-1.72,2.093-5.038,4.159-6.455,4.032v0a1.254,1.254,0,0,1-1.237-.875l-.024-.417c0-1.412,1.88-3.6,2.866-4.266C67.259,18.42,67.8,18.086,67.8,18.086Zm19.231-5.057a9.161,9.161,0,0,1,2.469-2,.379.379,0,0,1,.5.08.462.462,0,0,1,.086.3.547.547,0,0,1-.081.312l.015,0c-.691,2.4-5.049,7.508-7.557,9.3,0,0-.3.211-.479.337.023-.188.076-.576.076-.576h0C82.273,19.066,85.515,14.894,87.034,13.029Zm4.9,10.92-.04-.028a1.621,1.621,0,0,1-.611-1.991c.256-.944,2.876-3.842,4.948-4.245a3.141,3.141,0,0,1,3,.575c0,.007.2.162.291.243-.078.086-1.017,1.092-1.017,1.092C97.119,21.546,93.657,24.746,91.934,23.949Z" transform="translate(-32.803 -4.498)" fill="#2e2e2d"/></svg>