<svg xmlns="http://www.w3.org/2000/svg" width="132.235" height="31.932" viewBox="0 0 132.235 31.932"><path d="M779.279,10.75a1.368,1.368,0,0,0,1.447-.892l.739-8.354c0-.826-.968-1.5-2.184-1.5S777.1.678,777.1,1.5l.738,8.354a1.363,1.363,0,0,0,1.443.892h0" transform="translate(-661.272)" fill="#2e2e2d"/><path d="M706.021,51.606a1.362,1.362,0,0,0-.049-1.7l-6.867-4.817c-.714-.413-1.785.084-2.392,1.138s-.5,2.228.211,2.641l7.6,3.54a1.375,1.375,0,0,0,1.5-.81l0,0" transform="translate(-592.529 -38.247)" fill="#2e2e2d"/><path d="M820.549,51.6a1.376,1.376,0,0,0,1.5.81l7.6-3.54c.716-.413.818-1.589.214-2.641s-1.683-1.551-2.395-1.138L820.6,49.912a1.369,1.369,0,0,0-.049,1.7l0,0" transform="translate(-698.022 -38.25)" fill="#2e2e2d"/><path d="M779.279,142.134a1.366,1.366,0,0,1,1.447.889l.739,8.353c0,.828-.968,1.5-2.184,1.5s-2.182-.676-2.182-1.5l.738-8.353a1.361,1.361,0,0,1,1.443-.889h0" transform="translate(-661.272 -120.949)" fill="#2e2e2d"/><path d="M820.549,119.748a1.369,1.369,0,0,1,1.5-.807l7.6,3.538c.716.414.818,1.591.214,2.644s-1.683,1.549-2.395,1.136l-6.867-4.812a1.373,1.373,0,0,1-.049-1.7h0" transform="translate(-698.022 -101.173)" fill="#2e2e2d"/><path d="M706.021,119.75a1.366,1.366,0,0,1-.049,1.7l-6.867,4.812c-.714.413-1.785-.087-2.392-1.137s-.5-2.23.211-2.644l7.6-3.538a1.368,1.368,0,0,1,1.5.807h0" transform="translate(-592.529 -101.176)" fill="#2e2e2d"/><path d="M453.51,83.037a2.461,2.461,0,0,1-2.632,2.533,1.718,1.718,0,0,1-1.869-1.841c0-1.913,2.105-2.441,4.5-2.428v1.736Zm3.759-3.333c0-3.154-1.348-5.929-5.9-5.929a10.776,10.776,0,0,0-5.205,1.242l.742,2.536a7.622,7.622,0,0,1,3.8-1.068c2.31-.006,2.688,1.308,2.688,2.149v.2c-5.035-.007-8.218,1.736-8.218,5.288a4.193,4.193,0,0,0,4.439,4.2,5.043,5.043,0,0,0,4.05-1.8h.086s.574,2.406,3.745,1.485a20.474,20.474,0,0,1-.22-3.353V79.7" transform="translate(-378.816 -62.778)" fill="#2e2e2d"/><path d="M0,44.953S3.29,58.436,3.816,60.624c.613,2.554,1.718,3.494,4.9,2.859l2.054-8.359c.521-2.077.87-3.558,1.205-5.669h.058a55.432,55.432,0,0,0,1,5.676s.836,3.795,1.265,5.787,1.624,3.248,4.743,2.564l4.9-18.53H19.985l-1.672,8.012c-.45,2.331-.857,4.154-1.172,6.287h-.056c-.286-2.113-.65-3.863-1.106-6.135L14.24,44.953H10.122L8.26,52.911c-.527,2.419-1.021,4.372-1.334,6.433H6.869c-.321-1.941-.749-4.4-1.212-6.737,0,0-1.105-5.693-1.494-7.655H0" transform="translate(0 -38.253)" fill="#2e2e2d"/><path d="M163.118,83.037a2.464,2.464,0,0,1-2.633,2.533,1.717,1.717,0,0,1-1.868-1.841c0-1.913,2.1-2.441,4.5-2.428v1.736Zm3.759-3.333c0-3.154-1.348-5.929-5.9-5.929a10.78,10.78,0,0,0-5.207,1.242l.741,2.536a7.622,7.622,0,0,1,3.8-1.068c2.311-.006,2.69,1.308,2.69,2.149v.2c-5.037-.007-8.219,1.736-8.219,5.288a4.192,4.192,0,0,0,4.436,4.2,5.046,5.046,0,0,0,4.052-1.8h.085s.576,2.406,3.746,1.485a20.4,20.4,0,0,1-.22-3.353V79.7" transform="translate(-131.708 -62.778)" fill="#2e2e2d"/><path d="M256.551,59.553v-14.6h-3.764v18.53h3.764V59.553" transform="translate(-215.109 -38.255)" fill="#2e2e2d"/><path d="M608.353,44.956v13.67c0,1.886.355,3.205,1.114,4.013a4.17,4.17,0,0,0,3.064,1.163,8.962,8.962,0,0,0,2.724-.4l-.049-2.94a5.744,5.744,0,0,1-1.429.17c-1.282,0-1.711-.821-1.711-2.513v-5.23h3.277V49.338h-3.277V44.956h-3.712" transform="translate(-517.677 -38.255)" fill="#2e2e2d"/><path d="M543.179,74.092V88.012h3.883V80.885a5.282,5.282,0,0,1,.084-1.028,2.93,2.93,0,0,1,3.069-2.448,7.227,7.227,0,0,1,1.12.1V73.864a3.773,3.773,0,0,0-.855-.086,4.1,4.1,0,0,0-3.789,2.94h-.1V74.092h-3.407" transform="translate(-462.217 -62.781)" fill="#2e2e2d"/><path d="M295.717,74.086V88.007H299.5V79.844a3.284,3.284,0,0,1,.178-1.139,2.562,2.562,0,0,1,2.3-1.784c1.527,0,2.24,1.29,2.24,3.153v7.934H308V79.744a3.855,3.855,0,0,1,.158-1.128,2.384,2.384,0,0,1,2.269-1.7c1.547,0,2.29,1.268,2.29,3.46v7.627H316.5v-8.2c0-4.324-2.2-6.035-4.674-6.035a5.05,5.05,0,0,0-2.747.755,5.889,5.889,0,0,0-1.763,1.735h-.056a3.969,3.969,0,0,0-3.836-2.49,4.381,4.381,0,0,0-4.054,2.205h-.056V74.085h-3.59" transform="translate(-251.64 -62.775)" fill="#2e2e2d"/></svg>