<svg xmlns="http://www.w3.org/2000/svg" width="105.943" height="61.149" viewBox="0 0 105.943 61.149"><path d="M47.9,27.555C62.058,36.831,69.382,16.448,53.759,11.2l-.244.244C57.176,13.4,60.35,18.035,59.5,22.551c-.732,4.15-5.248,6.957-11.351,4.638Z" transform="translate(1.41 -0.703)" fill="#011f35"/><path d="M36.5,27.253,40.65,25.3c7.323,7.323,19.163,9.886,26.242,4.028l.244.122C64.695,32.989,52,39.7,36.5,27.253" transform="translate(-1.104 2.406)" fill="#011f35"/><path d="M41.6,19.444,49.9,2.6c3.418.366,11.107,2.929,15.989,8.056,3.54,3.784,5.248,9.4,4.394,13.792h-.366C70.4,16.514,62.593,7.6,51.608,6.506l-9.52,13.06Z" transform="translate(0.021 -2.6)" fill="#011f35"/><path d="M7.5,55.951h9.276c6.469,0,11.473-3.662,11.473-10.375,0-5.737-3.906-9.276-10.375-9.276H7.5v.854c1.221.122,2.2.244,2.319.732A6.983,6.983,0,0,1,9.941,39.6V52.533a6.983,6.983,0,0,1-.122,1.709c-.122.488-1.1.61-2.319.732Zm6.469-18.674h2.075c5.126,0,7.811,3.051,7.811,8.3,0,7.079-3.3,9.4-7.323,9.4-2.2,0-2.563-.244-2.563-3.051Z" transform="translate(-7.5 4.832)" fill="#011f35"/><path d="M33.423,55.369c4.638,0,8.056-3.3,8.056-7.567a7.084,7.084,0,0,0-7.323-7.2A7.6,7.6,0,0,0,26.1,48.167a7.021,7.021,0,0,0,7.323,7.2m.244-13.67c3.173,0,3.784,4.638,3.784,6.835,0,4.394-1.831,5.859-3.418,5.859s-4.028-1.1-4.028-6.713c.122-4.028,1.709-5.981,3.662-5.981" transform="translate(-3.398 5.781)" fill="#011f35"/><path d="M45.881,51.707A6.983,6.983,0,0,0,46,53.416c.122.488,1.1.61,1.831.732V55H39.9v-.854c.976-.122,1.953-.244,2.075-.732a6.983,6.983,0,0,0,.122-1.709V44.262c0-1.343-.732-1.587-2.2-1.587v-.854A13.806,13.806,0,0,0,45.881,40.6h0v2.319h0A6.666,6.666,0,0,1,51.129,40.6c2.075,0,2.807.854,3.906,2.319A6.666,6.666,0,0,1,60.283,40.6c3.051,0,3.906,2.075,3.906,5v6.1a6.984,6.984,0,0,0,.122,1.709c.122.488,1.1.61,2.075.732V55H58.452v-.854c.854-.122,1.709-.244,1.831-.732a6.983,6.983,0,0,0,.122-1.709v-5.37c0-2.075-.122-3.906-2.319-3.906-1.709,0-3.173.976-3.173,5.737v3.54a6.983,6.983,0,0,0,.122,1.709c.122.488,1.1.61,1.831.732V55H49.176v-.854c.732-.122,1.709-.244,1.831-.732a6.983,6.983,0,0,0,.122-1.709v-5.37c0-2.075-.122-3.906-2.319-3.906-1.709,0-3.173.854-3.173,5.737v3.54Z" transform="translate(-0.354 5.781)" fill="#011f35"/><path d="M72.164,43.769H68.381V51.58c0,1.953.854,2.685,1.831,2.685a4.9,4.9,0,0,0,1.831-.366l.244.732A8.546,8.546,0,0,1,68.015,56.1a3.336,3.336,0,0,1-3.418-3.54V43.769H62.4V42.426h2.319L64.6,39.253,68.381,37.3v5.126h3.784Z" transform="translate(4.608 5.053)" fill="#011f35"/><path d="M91.1,43.651a4.663,4.663,0,0,1,5.248-2.319l-1.1,3.418c-1.221-.732-4.028-.976-4.15,1.465v5.492a6.984,6.984,0,0,0,.122,1.709c.122.488,1.1.61,2.319.732V55H85v-.854c.976-.122,1.953-.244,2.075-.732a6.983,6.983,0,0,0,.122-1.709V44.262c0-1.465-.732-1.587-2.2-1.587v-.854A13.806,13.806,0,0,0,90.981,40.6h0l.122,3.051Z" transform="translate(9.592 5.781)" fill="#011f35"/><path d="M80.3,46.681c-2.807.854-4.882,1.587-4.882,4.15,0,1.221.61,2.319,1.953,2.319,1.587,0,2.929-1.343,2.929-3.906Zm-5.615-1.709-2.563-.732c.732-1.953,2.319-3.54,6.225-3.54,4.028,0,5.737,1.831,5.737,4.882v5.737c0,1.709.488,2.2.976,2.2a5.943,5.943,0,0,0,1.465.122l.122.854a12.271,12.271,0,0,1-3.906.854c-1.221,0-1.709-.732-2.075-1.709-.122-.244-.122-.244-.122-.366a6.953,6.953,0,0,1-5,2.075A3.639,3.639,0,0,1,72,51.441c0-2.685,1.709-3.54,4.516-4.516l4.028-1.343c0-2.319-.732-3.906-2.441-3.906-2.2,0-3.051,2.685-3.418,3.3" transform="translate(6.725 5.803)" fill="#011f35"/></svg>