<svg xmlns="http://www.w3.org/2000/svg" width="119.514" height="22.672" viewBox="0 0 119.514 22.672"><path d="M178.022,293.72l2.566-13.283h-2.26l.687-3.512h2.26l1.059-5.435h4.046l-1.044,5.435h2.413l-.657,3.512h-2.443l-2.6,13.283Z" transform="translate(-149.838 -271.491)" fill="#2e2e2d"/><path d="M202.429,293.72l2.565-13.283h-2.26l.688-3.512h2.259l1.06-5.435h4.046l-1.044,5.435h2.412l-.656,3.512h-2.442l-2.6,13.283Z" transform="translate(-163.954 -271.491)" fill="#2e2e2d"/><path d="M242.15,295.322a9.044,9.044,0,0,1-3.343,4.233,9.18,9.18,0,0,1-5.221,1.477,7.8,7.8,0,0,1-8.092-8.107,9.7,9.7,0,0,1,.855-4.023,9.916,9.916,0,0,1,2.427-3.32,8.441,8.441,0,0,1,2.733-1.649,9.351,9.351,0,0,1,3.267-.565,7.969,7.969,0,0,1,5.862,2.256,7.833,7.833,0,0,1,2.275,5.818q0,.443-.046.987c-.03.362-.081.762-.153,1.2H229.433a4.784,4.784,0,0,0,1.466,2.792,4.211,4.211,0,0,0,2.855.949,5,5,0,0,0,2.268-.507,5.392,5.392,0,0,0,1.824-1.538Zm-12.305-4.978h9.13a4.371,4.371,0,0,0-1.6-2.453,5.066,5.066,0,0,0-5.7.008A5.193,5.193,0,0,0,229.845,290.345Z" transform="translate(-177.294 -278.36)" fill="#2e2e2d"/><path d="M274.441,284l-.351,1.6a6.738,6.738,0,0,1,2.039-1.412,5.688,5.688,0,0,1,2.282-.466,6.639,6.639,0,0,1,4.557,1.374A5.211,5.211,0,0,1,284.5,289.2a12.385,12.385,0,0,1-.145,1.549q-.146,1.047-.42,2.42l-1.465,7.634h-4.032l1.71-8.87c.072-.346.128-.693.168-1.038a8.669,8.669,0,0,0,.061-1.008,2.8,2.8,0,0,0-.672-2.023,2.6,2.6,0,0,0-1.954-.694,3.772,3.772,0,0,0-2.962,1.252,8.277,8.277,0,0,0-1.634,3.939l-1.724,8.443h-3.879L270.96,284Z" transform="translate(-201.622 -278.569)" fill="#2e2e2d"/><path d="M322.751,293.72l.214-1.161a5.759,5.759,0,0,1-1.939,1.206,6.808,6.808,0,0,1-2.382.4A7.436,7.436,0,0,1,313,291.881a8.321,8.321,0,0,1-2.168-5.977,9.486,9.486,0,0,1,.466-2.978,10.243,10.243,0,0,1,1.412-2.749,8.555,8.555,0,0,1,3.123-2.687,8.942,8.942,0,0,1,4.068-.931,7.445,7.445,0,0,1,3.1.641,7.228,7.228,0,0,1,2.5,1.893l1.435-7.6h3.938L326.6,293.72Zm-2.687-13.634a5.01,5.01,0,0,0-3.771,1.687,5.728,5.728,0,0,0-1.588,4.069,4.707,4.707,0,0,0,1.214,3.373,4.2,4.2,0,0,0,3.2,1.282,4.873,4.873,0,0,0,3.749-1.687,5.954,5.954,0,0,0,1.534-4.16,4.553,4.553,0,0,0-1.229-3.283A4.124,4.124,0,0,0,320.065,280.087Z" transform="translate(-226.65 -271.491)" fill="#2e2e2d"/><path d="M355.318,295.146h3.969v.092a2.553,2.553,0,0,0,.512,1.7,1.769,1.769,0,0,0,1.427.6,1.634,1.634,0,0,0,1.183-.45,1.516,1.516,0,0,0,.466-1.138,1.624,1.624,0,0,0-.367-1.03,5.115,5.115,0,0,0-1.252-1.031q-.473-.321-1.3-.824a10.482,10.482,0,0,1-1.833-1.313,4.8,4.8,0,0,1-.908-1.42,4.15,4.15,0,0,1-.283-1.541,4.934,4.934,0,0,1,1.634-3.763,5.776,5.776,0,0,1,4.092-1.52,5.277,5.277,0,0,1,3.794,1.389,4.792,4.792,0,0,1,1.458,3.634v.261l-3.97-.016a2.4,2.4,0,0,0-.4-1.411,1.268,1.268,0,0,0-1.062-.482,1.531,1.531,0,0,0-1.069.4,1.271,1.271,0,0,0-.442.969q0,.887,1.969,2.093l.519.32a9.938,9.938,0,0,1,2.771,2.32,4.134,4.134,0,0,1,.786,2.489,5.367,5.367,0,0,1-1.664,4.023,5.773,5.773,0,0,1-4.183,1.61,6.127,6.127,0,0,1-4.306-1.442,5.091,5.091,0,0,1-1.572-3.947c0-.05.006-.142.015-.275S355.318,295.218,355.318,295.146Z" transform="translate(-252.364 -278.444)" fill="#2e2e2d"/><g transform="translate(115.549 0)"><path d="M385.235,273.5v-.011a1.982,1.982,0,1,1,3.965-.011v.011a1.982,1.982,0,1,1-3.965.011Zm3.737-.011v-.011a1.754,1.754,0,1,0-3.509.011v.011a1.754,1.754,0,1,0,3.509-.011Zm-2.574-1.071h.968c.479,0,.832.216.832.684a.633.633,0,0,1-.456.638l.524.74h-.6l-.446-.65H386.9v.65h-.5Zm.934,1c.227,0,.352-.113.352-.284s-.137-.286-.352-.286H386.9v.57Z" transform="translate(-385.235 -271.491)" fill="#2e2e2d"/></g><path d="M136.026,285.367h0l-.355-1.634h0l-2.657-12.242h-4.656l-5.368,9.554c.752.347,1.488.745,2.213,1.137.47.253.933.5,1.393.737l3.258-5.962,1.667,7.942c-4.082.54-7.6-3.4-11.713-4.1a10.14,10.14,0,0,0-8.632,2.954,8.958,8.958,0,0,1,7.658.544c4.373,2.386,9.066,5.627,13.556,4.739,1.877-.377,4.2-1.069,4.2-1.069Z" transform="translate(-111.175 -271.491)" fill="#2e2e2d"/><path d="M126.7,306.125l-4.352,7.627h4.779s2.612-4.605,3.186-5.656c-1.175-.588-2.341-1.25-3.494-1.9Z" transform="translate(-117.635 -291.523)" fill="#2e2e2d"/><path d="M166.051,312.363c-.271.08-2.439.715-4.2,1.068l.856,3.929h4.443Z" transform="translate(-140.484 -295.131)" fill="#2e2e2d"/></svg>