<svg xmlns="http://www.w3.org/2000/svg" width="61.189" height="74.99" viewBox="0 0 61.189 74.99"><path d="M67.415,37.084A29.469,29.469,0,1,1,37.947,7.616,29.467,29.467,0,0,1,67.415,37.084ZM37.947,17.4A19.685,19.685,0,1,0,57.632,37.085,19.686,19.686,0,0,0,37.947,17.4Z" transform="translate(-8.181 -7.616)" fill="#2e2e2d"/><path d="M83.3,72.333A10.107,10.107,0,1,1,73.2,62.227,10.106,10.106,0,0,1,83.3,72.333Z" transform="translate(-43.43 -42.865)" fill="#2e2e2d"/><path d="M16.537,187.8H7.64v2.035h3.235v8.793h2.4v-8.793h3.262Z" transform="translate(-7.64 -123.918)" fill="#2e2e2d"/><path d="M158.621,187.8h-8.9v2.035h3.235v8.793h2.4v-8.793h3.262Z" transform="translate(-99.348 -123.918)" fill="#2e2e2d"/><path d="M71.1,190.853a2.531,2.531,0,0,1-1.625,2.615v.222s1.536-.133,1.536,3.176a3.648,3.648,0,0,0,.473,1.773H69.078a6.35,6.35,0,0,1-.34-2.349c-.074-1.182-.355-1.876-2.1-1.876h-2.1v4.229h-2.4V187.819h5.623C69.595,187.819,71.1,188.7,71.1,190.853Zm-4.151-1.182H64.54v3.014h2.425c1.285,0,1.788-.532,1.788-1.551C68.753,190.188,68.147,189.671,66.95,189.671Z" transform="translate(-42.817 -123.928)" fill="#2e2e2d"/><path d="M126,196.595V194h5.2v-1.87H126v-2.325h5.7v-1.988h-8.1v10.823h8.22v-2.047Z" transform="translate(-82.485 -123.928)" fill="#2e2e2d"/><path d="M40.216,198.689H37.764l-.783-2.423H32.9l-.871,2.423H29.624l4.107-10.814h2.482Zm-5.274-8.155-1.492,3.959h2.91Z" transform="translate(-21.829 -123.964)" fill="#2e2e2d"/><path d="M98.369,190.924h2.275c0-1.876-1.847-3.841-4.58-3.841s-5.274,1.8-5.274,5.747a5.246,5.246,0,0,0,5.185,5.614,3.5,3.5,0,0,0,3.117-1.625l.192,1.344h1.521v-5.909H96.242v1.832H98.65a2.341,2.341,0,0,1-2.541,2.334c-2.1,0-2.969-1.743-2.969-3.693s.916-3.649,2.925-3.649A2.26,2.26,0,0,1,98.369,190.924Z" transform="translate(-61.31 -123.453)" fill="#2e2e2d"/><g transform="translate(57.349 70.991)"><path d="M170.58,211.484a1.808,1.808,0,0,1-.615-.4,1.9,1.9,0,0,1-.42-.615,1.857,1.857,0,0,1,0-1.485,1.816,1.816,0,0,1,.425-.61,2,2,0,0,1,.615-.395,2.036,2.036,0,0,1,1.47,0,1.937,1.937,0,0,1,.61.4,1.978,1.978,0,0,1,.415.6,1.872,1.872,0,0,1,.15.745,1.821,1.821,0,0,1-.26.97,1.956,1.956,0,0,1-2.39.785Zm-.6-.95a1.438,1.438,0,0,0,.56.57,1.569,1.569,0,0,0,1.55,0,1.481,1.481,0,0,0,.56-.575,1.639,1.639,0,0,0,.2-.8,1.7,1.7,0,0,0-.115-.615,1.655,1.655,0,0,0-.325-.505,1.427,1.427,0,0,0-.495-.335,1.529,1.529,0,0,0-.6-.12,1.522,1.522,0,0,0-1.1.45,1.478,1.478,0,0,0-.33.5,1.773,1.773,0,0,0-.085.3,1.72,1.72,0,0,0-.03.325A1.633,1.633,0,0,0,169.98,210.535Zm.935.285h-.33v-2.175h.84a.931.931,0,0,1,.57.145.562.562,0,0,1,.19.47.575.575,0,0,1-.15.425.771.771,0,0,1-.405.18l.615.955h-.375l-.575-.945h-.38Zm.4-1.22a.928.928,0,0,0,.39-.07.286.286,0,0,0,.14-.29q0-.32-.48-.32h-.45v.68Z" transform="translate(-169.39 -207.844)" fill="#2e2e2d"/></g></svg>