<svg xmlns="http://www.w3.org/2000/svg" width="184.161" height="60.28" viewBox="0 0 184.161 60.28"><g transform="translate(-56 -45)"><g transform="translate(-102.336 -156.679)"><g transform="translate(218.418 228.428)"><path d="M337.667,292.376v18.29h-7.981v-32.7h7.981v7.981H342.6v6.429Z" transform="translate(-329.686 -277.966)" fill="#2e2e2d"/><path d="M461.279,298.953h7.981v2.533a7.8,7.8,0,0,1,6.928-3.492,9.214,9.214,0,0,1,4.656,1.108,7.315,7.315,0,0,1,2.993,3.436,9.5,9.5,0,0,1,8.425-4.545,9.923,9.923,0,0,1,6.928,2.328c2.383,2.272,2.549,5.6,2.549,7.372v15.979h-7.981V310.8c0-1.275,0-3.492-1.053-4.822a3.663,3.663,0,0,0-2.882-1.33,3.836,3.836,0,0,0-3.1,1.5,7.942,7.942,0,0,0-1.219,4.877v12.653h-7.981V310.465c0-1.663-.056-3.6-1.275-4.822a3.584,3.584,0,0,0-2.66-1,3.891,3.891,0,0,0-2.771,1c-1.5,1.441-1.552,4.212-1.552,5.044v12.986h-7.981Z" transform="translate(-415.138 -290.972)" fill="#2e2e2d"/><path d="M609.526,312.7h2.929a13.112,13.112,0,0,0,.082-1.45,13.3,13.3,0,1,0-.784,4.453h-7.645a6.264,6.264,0,0,1-5.085,2.761,6.77,6.77,0,0,1-6.366-5.764h16.869Zm-10.5-9.034a6.531,6.531,0,0,1,5.911,4.268H593.112A6.531,6.531,0,0,1,599.023,303.664Z" transform="translate(-495.809 -290.972)" fill="#2e2e2d"/><path d="M388.871,297.995a13.257,13.257,0,1,0,13.514,13.254A13.386,13.386,0,0,0,388.871,297.995Zm0,19.641a6.387,6.387,0,1,1,6.316-6.387A6.352,6.352,0,0,1,388.871,317.636Z" transform="translate(-359.343 -290.972)" fill="#2e2e2d"/></g><g transform="translate(335.146 229.038)"><path d="M666.266,279.7a3.686,3.686,0,1,1-3.676,3.686A3.575,3.575,0,0,1,666.266,279.7Zm0,.531a3.156,3.156,0,1,0,3.08,3.154A3.047,3.047,0,0,0,666.266,280.236Zm.871,5.066L665.9,283.73V285.3h-.754V281.33H666.2c1.264,0,1.424.807,1.424,1.189a1.114,1.114,0,0,1-.882,1.126l1.317,1.657Zm-1.232-2.2h.149c.553,0,.829-.223.829-.563,0-.51-.531-.541-.807-.541h-.17Z" transform="translate(-662.59 -279.705)" fill="#2e2e2d"/></g><g transform="translate(158.336 209.862)"><path d="M202.994,225.017H158.337v7.444h7.441v0h44.659v-7.443Z" transform="translate(-158.337 -225.017)" fill="#f25757"/><path d="M202.994,274.911v22.329h-7.445V267.468h-7.442v14.886H173.222v14.885h-7.444V274.911h14.886v-7.443H158.336V304.68h52.1V267.468h-7.442Zm-14.888,22.329h-7.443V289.8h7.443Z" transform="translate(-158.336 -252.583)" fill="#f25757"/></g><g transform="translate(218.417 201.679)"><path d="M329.684,224.311h4.99v2.425a5.538,5.538,0,0,1,1.94-2.148,4.782,4.782,0,0,1,2.668-.658,5.02,5.02,0,0,1,1.629.242l-.277,4.678a4.707,4.707,0,0,0-2.252-.555,3.258,3.258,0,0,0-2.495,1.04,5.87,5.87,0,0,0-1.212,4.158v6.271h-4.99Z" transform="translate(-329.684 -216.128)" fill="#2e2e2d"/><path d="M376.587,224.055h4.99v15.454h-4.99v-1.871a5.15,5.15,0,0,1-4.574,2.391,7.322,7.322,0,0,1-5.786-2.356,8.176,8.176,0,0,1-2.252-5.786,8.8,8.8,0,0,1,2.391-6.237,7.448,7.448,0,0,1,5.37-2.114,5.8,5.8,0,0,1,4.851,2.252Zm-6.731,4.6a4.426,4.426,0,0,0-1.159,3.087,4.59,4.59,0,0,0,1.053,3.048,4,4,0,0,0,2.984,1.333,3.6,3.6,0,0,0,2.634-1.181,4.788,4.788,0,0,0,.07-6.326,4.05,4.05,0,0,0-2.809-1.181A3.831,3.831,0,0,0,369.856,228.657Z" transform="translate(-351.951 -215.871)" fill="#2e2e2d"/><path d="M426.776,209.862v-.595a4.657,4.657,0,0,1,.555-2.668l0,0a1.016,1.016,0,0,1,.815-.377h1.707v-4.54h-2.133v.006a5.664,5.664,0,0,0-4.2,1.761,7.314,7.314,0,0,0-1.733,5.371v16.5h4.99V213.882h3.08v-4.02Z" transform="translate(-389.492 -201.679)" fill="#2e2e2d"/><path d="M565.009,201.679v23.637h-4.99V201.679Z" transform="translate(-479.255 -201.679)" fill="#2e2e2d"/><path d="M521.183,232.553h1.839a8.21,8.21,0,0,0,.052-.91,8.352,8.352,0,1,0-.492,2.8h-4.8a3.933,3.933,0,0,1-3.193,1.733,4.25,4.25,0,0,1-4-3.619h10.591Zm-6.594-5.672a4.1,4.1,0,0,1,3.711,2.679h-7.423A4.1,4.1,0,0,1,514.589,226.881Z" transform="translate(-444.245 -215.733)" fill="#2e2e2d"/><path d="M463,224.055h4.99v15.454H463v-1.871a5.149,5.149,0,0,1-4.574,2.391,7.322,7.322,0,0,1-5.787-2.356,8.176,8.176,0,0,1-2.252-5.786,8.8,8.8,0,0,1,2.391-6.237,7.448,7.448,0,0,1,5.37-2.114A5.8,5.8,0,0,1,463,225.787Zm-6.731,4.6a4.424,4.424,0,0,0-1.159,3.087,4.59,4.59,0,0,0,1.053,3.048,4,4,0,0,0,2.984,1.333,3.6,3.6,0,0,0,2.634-1.181,4.787,4.787,0,0,0,.07-6.326,4.05,4.05,0,0,0-2.809-1.181A3.83,3.83,0,0,0,456.266,228.657Z" transform="translate(-408.062 -215.871)" fill="#2e2e2d"/></g></g></g></svg>