<?xml version="1.0" encoding="utf-8"?>
<!-- Generator: Adobe Illustrator 15.1.0, SVG Export Plug-In . SVG Version: 6.00 Build 0)  -->
<!DOCTYPE svg PUBLIC "-//W3C//DTD SVG 1.1//EN" "http://www.w3.org/Graphics/SVG/1.1/DTD/svg11.dtd">
<svg version="1.1" id="Layer_1" xmlns="http://www.w3.org/2000/svg" xmlns:xlink="http://www.w3.org/1999/xlink" x="0px" y="0px"
	 width="220.4px" height="60px" viewBox="0 0 220.4 60" style="enable-background:new 0 0 220.4 60;" xml:space="preserve">
<style type="text/css">
<![CDATA[
	.st0{fill:#FFFFFF;}
	.st1{fill:#3C3C3B;}
	.st2{fill:#DF484A;}
]]>
</style>
<g>
	<g>
		<path class="st1" d="M74.4,10.4c1.3-2.2,3.4-3.4,6-3.4v5.4c-3.5-0.3-5.7,1.3-6,3.9v9.6h-6V7.3h6V10.4z"/>
		<path class="st1" d="M99.1,13.7v12.2h-5.8v-2.1c-1.2,1.6-3.2,2.4-5.7,2.4c-4,0-6.4-2.4-6.4-5.8c0-3.5,2.5-5.6,7.1-5.6h4.9v-0.3
			c0-1.8-1.2-2.9-3.6-2.9c-1.6,0-3.6,0.6-5.6,1.6l-1.7-3.9C85.3,7.8,87.9,7,91,7C96.1,7,99.1,9.5,99.1,13.7z M93.2,19.6v-1.7h-3.8
			c-1.8,0-2.7,0.6-2.7,2c0,1.3,1,2.2,2.6,2.2C91.3,22.1,92.9,21.1,93.2,19.6z"/>
		<path class="st1" d="M110.4,6.8v1.3h4.2V12h-4.2v13.8h-5.9V12h-2.5V8.1h2.5V6.4c0-4.1,3.1-6.4,7.1-6.4c1.8,0,3.8,0.5,5.2,1.3
			l-2.1,4.2c-0.7-0.5-1.5-0.8-2.2-0.8C111.3,4.7,110.4,5.4,110.4,6.8z"/>
		<path class="st1" d="M132.3,13.7v12.2h-5.8v-2.1c-1.2,1.6-3.2,2.4-5.7,2.4c-4,0-6.4-2.4-6.4-5.8c0-3.5,2.5-5.6,7.1-5.6h4.9v-0.3
			c0-1.8-1.2-2.9-3.6-2.9c-1.6,0-3.6,0.6-5.6,1.6l-1.7-3.9c2.9-1.3,5.5-2.1,8.6-2.1C129.3,7,132.2,9.5,132.3,13.7z M126.4,19.6v-1.7
			h-3.8c-1.8,0-2.7,0.6-2.7,2c0,1.3,1,2.2,2.6,2.2C124.4,22.1,126,21.1,126.4,19.6z"/>
		<path class="st1" d="M154,18.2H141c0.6,2.2,2.2,3.5,4.4,3.5c1.6,0,3.2-0.7,4.5-1.9l3.1,3.1c-1.9,2.1-4.7,3.3-8.1,3.3
			c-6.1,0-9.9-3.8-9.9-9.5c0-5.8,3.9-9.6,9.7-9.6C151.2,7.1,154.5,11.4,154,18.2z M148.3,15c0-2.3-1.4-3.8-3.6-3.8
			c-2.1,0-3.5,1.5-3.9,3.8H148.3z"/>
		<path class="st1" d="M157.5,25.9V0.3h6v25.6H157.5z"/>
		<path class="st1" d="M144.3,58.6c-1.5,0.9-3.5,1.4-5.5,1.4c-4,0-6.8-2.2-6.8-6.5v-9.1h-2.9v-4.3h2.9v-5.7h6.6v5.7h5.4v4.3h-5.4v8
			c0,1.6,0.7,2.3,1.9,2.2c0.7,0,1.6-0.3,2.6-0.7L144.3,58.6z"/>
		<path class="st1" d="M165.7,50.7c0,5.5-3.9,9.2-9.8,9.2c-5.9,0-9.8-3.7-9.8-9.2s3.9-9.2,9.8-9.2C161.8,41.6,165.7,45.2,165.7,50.7
			z M151.9,50.8c0,2.8,1.6,4.7,4,4.7c2.4,0,4-1.9,4-4.7c0-2.8-1.6-4.7-4-4.7C153.5,46.1,151.9,48,151.9,50.8z"/>
		<path class="st1" d="M199.3,48.4v11.3h-5.7V50c0-2.1-1.2-3.4-3.1-3.4c-2.2,0.1-3.5,1.8-3.5,4.3v8.9h-5.8V50c0-2.1-1.2-3.4-3.1-3.4
			c-2.2,0.1-3.6,1.8-3.6,4.3v8.9h-5.7v-18h5.7v3c1.2-2.1,3.3-3.2,5.9-3.2c2.9,0,5.1,1.5,6,4.1c1.2-2.7,3.4-4,6.3-4.1
			C196.8,41.5,199.3,44.2,199.3,48.4z"/>
		<path class="st1" d="M220.4,52.3h-12.6c0.6,2.1,2.1,3.3,4.2,3.3c1.6,0,3.1-0.6,4.3-1.8l3,3c-1.8,2-4.5,3.2-7.8,3.2
			c-5.9,0-9.5-3.7-9.5-9.1c0-5.6,3.8-9.2,9.4-9.2C217.6,41.6,220.8,45.7,220.4,52.3z M214.8,49.2c0-2.2-1.4-3.6-3.5-3.6
			c-2,0-3.4,1.5-3.7,3.6H214.8z M208.2,39.7l3.5-5.6L217,36l-4.3,3.8H208.2z"/>
	</g>
	<polygon class="st2" points="111.5,34.4 103,34.4 94.4,34.4 85.9,34.4 77.4,34.4 68.8,34.4 68.8,42.9 68.8,51.5 68.8,60 77.4,60 
		85.9,60 94.4,60 103,60 111.5,60 120,60 120,51.5 120,42.9 120,34.4 	"/>
	<g>
		<polygon class="st2" points="51.2,0.3 42.7,0.3 34.1,0.3 25.6,0.3 17.1,0.3 8.5,0.3 4.9,0.3 0,0.3 0,8.8 8.5,8.8 8.5,8.8 
			17.1,8.8 25.6,8.8 34.1,8.8 42.7,8.8 51.2,8.8 59.7,8.8 59.7,0.3 		"/>
		<path class="st2" d="M51.2,25.9v8.5v8.5v8.5h-8.5v-8.5v-8.5v-8.5v-8.5h-8.5v8.5v8.5h-8.5h-8.5v8.5v8.5H8.5v-8.5v-8.5v-8.5v0h7.3
			h9.7v-8.5h-9.7H8.5H6.1H0v8.5v8.5v8.5v8.5V60h4.9l0,0h12.2h8.5h8.5h8.5h8.5h8.5v-8.5v-8.5v-8.5v-8.5v-8.5h-8.5V25.9z M34.1,51.5
			h-8.5v-8.5h8.5V51.5z"/>
	</g>
	<g>
		<path class="st0" d="M80.5,43c2.1,0,3.3,1,3.3,2.8c0,1.9-1.2,2.9-3.3,2.9h-2.2v2.7h-1V43H80.5z M78.3,47.8h2.2
			c1.5,0,2.4-0.7,2.4-2c0-1.3-0.9-1.9-2.4-1.9h-2.2V47.8z"/>
		<path class="st0" d="M89,43c2.5,0,4.3,1.8,4.3,4.2c0,2.4-1.9,4.2-4.4,4.2h-3.4V43H89z M86.6,50.5h2.5c1.9,0,3.4-1.4,3.4-3.3
			c0-1.9-1.5-3.3-3.4-3.3h-2.4V50.5z"/>
		<path class="st0" d="M103,44.2l-0.6,0.7c-0.6-0.7-1.6-1.1-2.5-1.1c-1.9,0-3.4,1.5-3.4,3.3c0,1.8,1.5,3.3,3.4,3.3
			c0.9,0,1.8-0.4,2.5-1l0.6,0.7c-0.8,0.8-2,1.3-3.1,1.3c-2.4,0-4.4-1.9-4.4-4.3c0-2.4,2-4.2,4.4-4.2C101,42.9,102.1,43.4,103,44.2z"
			/>
		<path class="st0" d="M111.5,47.3v3.1c-0.8,0.7-2,1.1-3.1,1.1c-2.4,0-4.4-1.9-4.4-4.3c0-2.4,2-4.2,4.4-4.2c1.2,0,2.3,0.4,3.1,1.2
			l-0.6,0.7c-0.7-0.6-1.6-1-2.6-1c-1.9,0-3.5,1.5-3.5,3.3c0,1.9,1.6,3.4,3.5,3.4c0.8,0,1.6-0.3,2.2-0.7v-2.5H111.5z"/>
	</g>
</g>
</svg>
