<?xml version="1.0" encoding="utf-8"?>
<!-- Generator: Adobe Illustrator 15.1.0, SVG Export Plug-In . SVG Version: 6.00 Build 0)  -->
<!DOCTYPE svg PUBLIC "-//W3C//DTD SVG 1.1//EN" "http://www.w3.org/Graphics/SVG/1.1/DTD/svg11.dtd">
<svg version="1.1" id="Layer_1" xmlns="http://www.w3.org/2000/svg" xmlns:xlink="http://www.w3.org/1999/xlink" x="0px" y="0px"
	 width="220.4px" height="60px" viewBox="0 0 220.4 60" style="enable-background:new 0 0 220.4 60;" xml:space="preserve">
<style type="text/css">
<![CDATA[
	.st0{fill:#FFFFFF;}
]]>
</style>
<g>
	<path class="st0" d="M74,16.3c1-2.6,3-4.2,6-3.9V7c-2,0-4,1.2-6,3.4V7h-6v19h6V16.3z"/>
	<path class="st0" d="M88.3,15c-4.6,0-7.1,2-7.1,5.5c0,3.4,2.3,5.8,6.2,5.8c2.5,0,4.6-0.9,5.6-2.5V26h6V13.7C99,9.5,96.1,7,90.9,7
		c-3.1,0-5.7,0.8-8.6,2.1L84,13c2-1,3.9-1.6,5.4-1.6c2.4,0,3.5,1.1,3.5,2.9V15H88.3z M93,19.6c0,1.5-1.8,2.6-3.7,2.6
		c-1.7,0-2.6-0.8-2.6-2.2c0-1.4,1-2,2.8-2H93V19.6z"/>
	<path class="st0" d="M104,26h6V12h5V8h-5V6.8c0-1.4,1.1-2.1,2.3-2c0.7,0,1.6,0.3,2.3,0.8l2.2-4.2c-1.4-0.8-3.6-1.3-5.4-1.3
		c-4,0-7.3,2.3-7.3,6.4V8h-2v4h2V26z"/>
	<path class="st0" d="M132,26V13.7c0-4.2-2.9-6.7-8-6.7c-3.1,0-5.7,0.8-8.6,2.1l1.7,3.9c2-1,3.8-1.6,5.4-1.6c2.4,0,3.4,1.1,3.4,2.9
		V15h-4.5c-4.6,0-7.1,2-7.1,5.5c0,3.4,2.2,5.8,6.2,5.8c2.5,0,4.5-0.9,5.5-2.5V26H132z M126,19.6c0,1.5-1.8,2.6-3.6,2.6
		c-1.7,0-2.5-0.8-2.5-2.2c0-1.4,1-2,2.8-2h3.4V19.6z"/>
	<path class="st0" d="M149.8,19.7c-1.2,1.2-2.8,1.8-4.5,1.8c-2.2,0-3.8-1.5-4.4-3.5H154c0.4-7-2.8-11-9.4-11c-5.8,0-9.7,3.8-9.7,9.6
		c0,5.7,3.8,9.5,9.9,9.5c3.4,0,6.2-1.2,8.1-3.3L149.8,19.7z M144.7,11.2c2.1,0,3.6,1.8,3.6,3.8h-7.5C141.2,13,142.7,11.2,144.7,11.2
		z"/>
	<rect x="157" class="st0" width="6" height="26"/>
	<path class="st0" d="M140.7,54.7c-1.2,0-1.7-0.6-1.7-2.2V44h5v-4h-5v-6h-7v6h-3v4h3v9.5c0,4.3,2.9,6.5,6.8,6.5c2,0,4-0.5,5.5-1.4
		l-1.2-4.6C142.1,54.4,141.4,54.7,140.7,54.7z"/>
	<path class="st0" d="M155.9,41.6c-5.9,0-9.8,3.6-9.8,9.2s3.9,9.2,9.8,9.2c5.9,0,9.8-3.7,9.8-9.2S161.8,41.6,155.9,41.6z
		 M155.9,55.5c-2.4,0-4-1.9-4-4.7c0-2.8,1.6-4.7,4-4.7c2.4,0,4,1.9,4,4.7C159.9,53.6,158.3,55.5,155.9,55.5z"/>
	<path class="st0" d="M192.7,41.5c-3,0-5.1,1.4-6.3,4.1c-0.9-2.5-2.8-4.1-5.8-4.1c-2.6,0-4.7,1.1-5.7,3.2V42h-6v18h6v-9.2
		c0-2.4,1-4.2,3.2-4.3c1.9,0,2.8,1.3,2.8,3.4v10h6v-9.2c0-2.4,1.5-4.2,3.7-4.3c1.9,0,3.3,1.3,3.3,3.4v10h5V48.4
		C199,44.2,196.6,41.5,192.7,41.5z"/>
	<path class="st0" d="M211.3,41.4c-5.6,0-9.4,3.7-9.4,9.3c0,5.5,3.7,9.2,9.5,9.2c3.3,0,6-1.1,7.8-3.1l-3-3c-1.2,1.2-2.7,1.7-4.3,1.7
		c-2.1,0-3.7-1.5-4.2-3.5h12.6C220.8,46,217.6,41.4,211.3,41.4z M207.6,49c0.4-2,1.7-3.6,3.7-3.6c2.1,0,3.5,1.6,3.5,3.6H207.6z"/>
	<polygon class="st0" points="217,36.1 211.8,34.3 208.2,40 212.6,40 	"/>
	<path class="st0" d="M80.5,44H78v4h2.5c1.5,0,2.4-0.7,2.4-2C82.9,44.7,82,44,80.5,44z"/>
	<path class="st0" d="M103,34h-8.5h-8.5h-8.5H69v8.9v8.5V60h8.4h8.5h8.5h8.5h8.5h8.5v-8.5v-8.5V34h-8.5H103z M80.5,49H78v2h-1v-8
		h3.5c2.1,0,3.3,1.1,3.3,2.9C83.8,47.8,82.6,49,80.5,49z M89,51h-3v-8h3c2.5,0,4.3,1.6,4.3,4C93.4,49.4,91.5,51,89,51z M99.8,51.4
		c-2.4,0-4.4-1.9-4.4-4.3c0-2.4,2-4.2,4.4-4.2c1.2,0,2.3,0.5,3.1,1.2l-0.6,0.7c-0.6-0.7-1.6-1.1-2.5-1.1c-1.9,0-3.4,1.5-3.4,3.3
		c0,1.8,1.5,3.3,3.4,3.3c0.9,0,1.8-0.4,2.5-1l0.6,0.7C102.1,50.9,101,51.4,99.8,51.4z M110.9,44.8c-0.7-0.6-1.6-1-2.6-1
		c-1.9,0-3.5,1.5-3.5,3.3c0,1.9,1.7,3.4,3.7,3.4c0.8,0,1.4-0.3,2.4-0.7V47l0,0v3.3c0,0.7-1.8,1.1-2.9,1.1c-2.4,0-4.3-1.9-4.3-4.3
		c0-2.4,2-4.2,4.5-4.2c1.2,0,2.3,0.4,3.1,1.2L110.9,44.8z"/>
	<path class="st0" d="M89,44h-2v6h2.1c1.9,0,3.4-1.1,3.4-3C92.4,45.1,90.9,44,89,44z"/>
	<polygon class="st0" points="42.7,0 34.1,0 25.6,0 17.1,0 8.5,0 4.9,0 0,0 0,9 9,9 9,9 17.1,9 25.6,9 34.1,9 42.7,9 51.2,9 60,9 
		60,0 51.2,0 	"/>
	<path class="st0" d="M51,25.9v8.5v8.5V51h-8v-8.1v-8.5v-8.5V17h-9v8.9V34h-8.4H17v8.9V51H9v-8.1v-8.5v-8.5V26h6.8H26v-9H15.8H8.5
		H6.1H0v8.9v8.5v8.5v8.5V60h4.9h12.2h8.5h8.5h8.5h8.5H60v-8.5v-8.5v-8.5v-8.5V17h-9V25.9z M34,51h-8v-8h8V51z"/>
</g>
</svg>
